<svg width="120" height="128" viewBox="0 0 120 128" fill="none" xmlns="http://www.w3.org/2000/svg">
<g filter="url(#filter0_d_720_2)">
<path d="M102.134 42.1369C102.134 18.8663 83.271 0 59.9986 0C36.7297 0 17.8672 18.8663 17.8672 42.1369C17.8672 53.908 23.0178 67.2769 30.4915 77.6813L60.0021 120L89.5202 77.6737C98.4173 64.9518 102.134 53.9007 102.134 42.1369Z" fill="#B7F9FE"/>
<path d="M59.9986 0C36.7297 0 17.8672 18.8664 17.8672 42.1369Z" fill="#ABDFE3"/>
<path d="M60.0016 120L89.5197 77.6737C98.4146 64.9518 102.133 53.9004 102.133 42.1369C102.133 18.8663 83.2705 0 59.998 0" fill="#A3D4F7"/>
<path d="M102.133 42.1369C102.133 18.8664 83.2705 0 59.998 0Z" fill="#99C4E3"/>
<path d="M60 58.6745C70.4589 58.6745 78.9375 50.1959 78.9375 39.737C78.9375 29.2781 70.4589 20.7994 60 20.7994C49.5411 20.7994 41.0625 29.2781 41.0625 39.737C41.0625 50.1959 49.5411 58.6745 60 58.6745Z" fill="#A3D4F7"/>
<path d="M41.0684 39.737C41.0684 29.28 49.5434 20.7994 59.9983 20.7994Z" fill="#99C4E3"/>
<path d="M59.998 20.8014C70.4531 20.8014 78.9356 29.28 78.9356 39.7389C78.9356 50.194 70.455 58.6688 59.998 58.6688" fill="#B7F9FE"/>
<path d="M78.9336 39.7369C78.9336 50.192 70.4531 58.6668 59.9961 58.6668Z" fill="#AADFE3"/>
</g>
<defs>
<filter id="filter0_d_720_2" x="-4" y="0" width="128" height="128" filterUnits="userSpaceOnUse" color-interpolation-filters="sRGB">
<feFlood flood-opacity="0" result="BackgroundImageFix"/>
<feColorMatrix in="SourceAlpha" type="matrix" values="0 0 0 0 0 0 0 0 0 0 0 0 0 0 0 0 0 0 127 0" result="hardAlpha"/>
<feOffset dy="4"/>
<feGaussianBlur stdDeviation="2"/>
<feComposite in2="hardAlpha" operator="out"/>
<feColorMatrix type="matrix" values="0 0 0 0 0 0 0 0 0 0 0 0 0 0 0 0 0 0 0.25 0"/>
<feBlend mode="normal" in2="BackgroundImageFix" result="effect1_dropShadow_720_2"/>
<feBlend mode="normal" in="SourceGraphic" in2="effect1_dropShadow_720_2" result="shape"/>
</filter>
</defs>
</svg>
